<?xml version="1.0" encoding="UTF-8"?>
<svg xmlns="http://www.w3.org/2000/svg" viewBox="0 0 1024 1024" version="1.1">
<path d="M0 0 C337.92 0 675.84 0 1024 0 C1024 337.92 1024 675.84 1024 1024 C686.08 1024 348.16 1024 0 1024 C0 686.08 0 348.16 0 0 Z " fill="#010101" transform="translate(0,0)"/>
<path d="M0 0 C1.07163895 -0.00960754 2.14327789 -0.01921509 3.24739075 -0.02911377 C4.96317574 -0.03548859 4.96317574 -0.03548859 6.71362305 -0.04199219 C8.50004463 -0.0505423 8.50004463 -0.0505423 10.32255554 -0.05926514 C12.83823768 -0.06869453 15.35393206 -0.07524091 17.86962891 -0.07910156 C21.70131135 -0.08880632 25.53245698 -0.11984998 29.36401367 -0.15136719 C31.81388029 -0.15789805 34.26375073 -0.1631482 36.71362305 -0.16699219 C37.85140701 -0.17933899 38.98919098 -0.19168579 40.16145325 -0.20440674 C51.07222826 -0.17411865 58.78910463 2.52626492 67.4128418 9.16113281 C68.30616211 9.82822266 68.30616211 9.82822266 69.2175293 10.50878906 C79.21726185 19.14911097 84.20063121 34.74598239 89.73005676 46.44902039 C93.15525759 53.64972202 96.75061037 60.74523475 100.43664742 67.81538963 C108.6433641 83.58030984 116.6029331 99.468461 124.53479052 115.37287474 C125.480239 117.26858851 126.42593271 119.16417977 127.37168503 121.05974197 C133.24042453 132.82306081 139.10368398 144.589108 144.96289062 156.35717773 C147.88812521 162.23235167 150.81633782 168.10603219 153.74761814 173.97819215 C155.28245983 177.0532698 156.81579226 180.12907776 158.34524727 183.20683861 C164.39854334 195.38260958 170.46908077 207.46555581 177.4128418 219.16113281 C187.43638489 200.0041441 197.19453409 180.72478525 206.84000683 161.37526512 C208.75935173 157.52635495 210.68145929 153.6788249 212.60333252 149.83117676 C217.45892907 140.10903945 222.31107613 130.38518232 227.1628418 120.66113281 C232.4201425 110.12434444 237.67811156 99.58789221 242.94000173 89.05339479 C244.83943849 85.25040918 246.73803808 81.44701084 248.63454437 77.64256287 C262.95709757 48.91170767 262.95709757 48.91170767 269.36059189 36.95153046 C271.70944753 32.55892506 273.8764146 28.11644707 275.9753418 23.59863281 C281.60269491 12.38318718 288.71060721 5.75057648 300.4128418 1.16113281 C303.63333687 0.180613 306.57983505 0.01811437 309.94067383 -0.01586914 C311.60357956 -0.03512199 311.60357956 -0.03512199 313.30007935 -0.05476379 C314.49486908 -0.06215073 315.68965881 -0.06953766 316.9206543 -0.07714844 C318.15645233 -0.08522018 319.39225037 -0.09329193 320.66549683 -0.10160828 C323.28308717 -0.11544001 325.90069548 -0.12616623 328.51831055 -0.1340332 C332.50166358 -0.14722191 336.48440148 -0.19510498 340.4675293 -0.23925781 C343.01439821 -0.24938821 345.56127417 -0.25790323 348.1081543 -0.26464844 C349.29079865 -0.28215652 350.47344299 -0.29966461 351.69192505 -0.31770325 C361.91301423 -0.29118259 370.09917982 1.98958437 377.65893555 9.10644531 C385.95043006 18.8198665 386.71043976 29.92117016 386.68026733 42.10235596 C386.68400637 43.53186589 386.6886089 44.96137378 386.69399798 46.39087844 C386.7062122 50.31019591 386.70596938 54.22942792 386.70360923 58.14876008 C386.70320066 62.37930248 386.71424403 66.60981763 386.72372437 70.84034729 C386.74032679 79.12559548 386.74583357 87.4108152 386.74694912 95.69607863 C386.74789998 102.43209191 386.75201214 109.16809582 386.75835037 115.90410614 C386.77596089 135.00915392 386.78518957 154.11417925 386.78368942 173.21923521 C386.78360951 174.2488749 386.7835296 175.27851458 386.78344727 176.33935547 C386.7833655 177.37025487 386.78328374 178.40115427 386.7831995 179.46329305 C386.78238671 196.16819319 386.80152329 212.87300314 386.829724 229.57787719 C386.85846324 246.73739665 386.87226371 263.89687214 386.87053645 281.05641627 C386.86987289 290.68734086 386.87534993 300.3181709 386.89689255 309.94907379 C386.91511805 318.14946703 386.91944045 326.34972286 386.9058737 334.5501276 C386.8993509 338.73178542 386.89920184 342.91317975 386.9165802 347.09481239 C386.93234667 350.92811233 386.92941126 354.76094063 386.91201194 358.59422931 C386.90750697 360.6267678 386.92257125 362.65932113 386.93849123 364.69180226 C386.84843112 376.69959517 383.69783638 387.20141329 375.4128418 396.16113281 C372.24535712 398.5515939 368.99275318 400.45750939 365.4128418 402.16113281 C364.39540894 402.68259888 364.39540894 402.68259888 363.35742188 403.21459961 C359.18123445 404.55703213 355.23121732 404.4664137 350.86987305 404.46191406 C349.94623459 404.46619919 349.02259613 404.47048431 348.07096863 404.47489929 C346.11844703 404.48063259 344.16590409 404.48115023 342.21337891 404.47680664 C339.25279403 404.47366197 336.29322403 404.49706513 333.33276367 404.52246094 C331.42846804 404.52473582 329.52416976 404.52543655 327.61987305 404.52441406 C326.74659866 404.53362381 325.87332428 404.54283356 324.97358704 404.55232239 C315.09870257 404.47944479 306.66411984 402.0529725 299.4128418 395.16113281 C289.59938915 384.59804142 288.82201729 373.24769258 288.86694336 359.50244141 C288.8581972 357.72758076 288.8477078 355.95272798 288.83561707 354.17788696 C288.80786415 349.38518024 288.80435001 344.59273218 288.80533695 339.7999568 C288.80219862 334.7817509 288.77656128 329.76365992 288.75335693 324.74551392 C288.7128638 315.25436919 288.69247195 305.76329306 288.67938304 296.2720753 C288.66349033 285.46183048 288.62506513 274.65170202 288.58478975 263.84152484 C288.50248232 241.61476592 288.44833303 219.38801257 288.4128418 197.16113281 C288.13478699 197.71953354 287.85673218 198.27793427 287.57025146 198.85325623 C286.28437123 201.43422821 284.99705114 204.01447957 283.7097168 206.59472656 C283.27256348 207.47269897 282.83541016 208.35067139 282.38500977 209.25524902 C279.54363326 214.94719319 276.63852522 220.60077341 273.6628418 226.22363281 C272.98112915 227.51479004 272.98112915 227.51479004 272.28564453 228.83203125 C271.91383057 229.53360352 271.5420166 230.23517578 271.15893555 230.95800781 C262.50368504 247.33332189 254.06516484 263.80563134 245.83370972 280.39675903 C241.3691251 289.38341466 236.71747848 298.24183867 231.84130859 307.01318359 C227.30083382 315.23059318 223.13271672 323.62229257 219.03930664 332.0703125 C211.67048778 347.10128363 204.10985786 359.11697498 188.4128418 366.16113281 C180.31544642 368.91626319 169.40048459 368.17914085 161.7487793 364.54394531 C146.67602706 355.62127927 140.2037096 341.37082286 132.6003418 326.28613281 C131.70268839 324.51921545 130.80441052 322.75261521 129.90551758 320.98632812 C125.10873024 311.54884251 120.35227077 302.09099818 115.64477539 292.60864258 C112.68846184 286.66657012 109.61659815 280.79040276 106.50756836 274.92700195 C103.9319979 270.06440016 101.38734037 265.18687026 98.86987305 260.29394531 C98.55930969 259.690513 98.24874634 259.08708069 97.92877197 258.46536255 C97.61397888 257.85369232 97.29918579 257.24202209 96.97485352 256.61181641 C91.38643128 245.75331096 85.75940958 234.9268691 79.79614258 224.26733398 C76.42945397 218.19762516 73.31491481 212.01354442 70.22070312 205.80200195 C69.75762001 204.87402046 69.2945369 203.94603897 68.81742096 202.98993683 C67.6818265 200.714034 66.54698847 198.43775737 65.4128418 196.16113281 C65.41229703 197.08805058 65.41175226 198.01496834 65.41119099 198.96997452 C65.39677563 221.5563997 65.35367646 244.14263261 65.28075123 266.72894669 C65.24614406 277.65167713 65.22075131 288.57428193 65.21728516 299.49707031 C65.21423932 309.02084138 65.19366561 318.54438844 65.15231723 328.06807303 C65.1310418 333.10771101 65.11835854 338.14703095 65.126688 343.18671417 C65.13426271 347.93765547 65.11826707 352.68795418 65.08478165 357.43877792 C65.07658943 359.17528007 65.07674958 360.91184662 65.08624458 362.64834213 C65.1493823 375.47279676 63.7148278 386.69763659 54.44799805 396.47363281 C49.09399044 400.91304028 42.19536514 404.24557205 35.19189453 404.33813477 C34.34348495 404.35097 33.49507538 404.36380524 32.62095642 404.37702942 C31.24756859 404.38810982 31.24756859 404.38810982 29.84643555 404.39941406 C28.89777115 404.40748581 27.94910675 404.41555756 26.97169495 404.4238739 C24.96015242 404.43770989 22.94858646 404.44843422 20.93701172 404.45629883 C18.89169376 404.46778483 16.84640497 404.48818262 14.80126953 404.51782227 C11.83695215 404.56078339 8.8735268 404.57671068 5.90893555 404.58691406 C5.00751328 404.60442215 4.106091 404.62193024 3.17735291 404.63996887 C-6.323922 404.60803616 -15.14695558 401.25961416 -22.1418457 394.70410156 C-29.039547 387.37743875 -31.70451188 378.03717737 -31.72137928 368.14177513 C-31.72583712 366.92638192 -31.73029497 365.7109887 -31.7348879 364.45876539 C-31.73479861 363.11332853 -31.73460877 361.76789167 -31.73432922 360.42245483 C-31.7376299 358.99054764 -31.74135589 357.55864137 -31.7454707 356.12673628 C-31.75547556 352.19152068 -31.75920505 348.25632032 -31.76186001 344.3210938 C-31.76576752 340.07688962 -31.77534549 335.83269747 -31.78407288 331.58850098 C-31.80382385 321.33905567 -31.8139014 311.0896094 -31.82280067 300.84014982 C-31.82718548 296.01200988 -31.83255176 291.18387104 -31.83778954 286.35573196 C-31.85479984 270.30372788 -31.86929398 254.25172447 -31.87653828 238.19971275 C-31.87844813 234.03532282 -31.88036847 229.87093288 -31.88232422 225.70654297 C-31.88280796 224.67152195 -31.8832917 223.63650093 -31.8837901 222.57011564 C-31.89209033 205.80366094 -31.91742803 189.03727759 -31.9499049 172.27085404 C-31.98298471 155.05264225 -32.00098784 137.83446671 -32.00418252 120.61622298 C-32.00634667 110.95060972 -32.01508159 101.28510054 -32.04064369 91.61951828 C-32.0623632 83.38797575 -32.07039492 75.15656257 -32.06067691 66.92499463 C-32.05613595 62.72714363 -32.05800651 58.52955946 -32.07743835 54.33174515 C-32.09509744 50.48357103 -32.09405039 46.63585787 -32.07854106 42.78767867 C-32.07505139 40.74708513 -32.09117067 38.70648659 -32.10814553 36.66596067 C-32.02400016 24.59422162 -29.34463255 15.99262272 -20.8918457 7.26269531 C-14.59244332 1.5184945 -8.43067193 0.06146133 0 0 Z " fill="#F8F8F8" transform="translate(334.587158203125,309.8388671875)"/>
<path d="M0 0 C1.07105988 -0.00953201 2.14211975 -0.01906403 3.24563599 -0.02888489 C4.39160248 -0.02797348 5.53756897 -0.02706207 6.71826172 -0.02612305 C8.49485672 -0.03255074 8.49485672 -0.03255074 10.30734253 -0.03910828 C12.80710206 -0.04484436 15.30687828 -0.04535717 17.80664062 -0.04101562 C21.64074913 -0.03784775 25.47409189 -0.06135236 29.30810547 -0.08666992 C31.73648991 -0.0889421 34.16487643 -0.08964679 36.59326172 -0.08862305 C37.74327667 -0.09783279 38.89329163 -0.10704254 40.07815552 -0.11653137 C41.14291107 -0.11030258 42.20766663 -0.10407379 43.3046875 -0.09765625 C44.24224884 -0.09828568 45.17981018 -0.0989151 46.14578247 -0.0995636 C48.52294922 0.2746582 48.52294922 0.2746582 50.3547821 1.62719727 C51.52294922 3.2746582 51.52294922 3.2746582 51.43188477 6.00634766 C50.37886143 9.79276275 48.81144995 13.11408378 46.97998047 16.56762695 C46.62000977 17.26244675 46.26003906 17.95726654 45.88916016 18.67314148 C44.71231471 20.94026355 43.52396449 23.20113546 42.33544922 25.4621582 C41.51069141 27.04589772 40.68672481 28.63004951 39.86352539 30.21459961 C38.20353133 33.40697557 36.53915104 36.59699754 34.87060547 39.78491211 C32.23697393 44.817734 29.62459335 49.86135544 27.01416016 54.90625 C25.32706038 58.16586614 23.63640561 61.42361583 21.94482422 64.6809082 C18.63379803 71.05854803 15.33072561 77.44028342 12.0300293 83.82327271 C11.08851523 85.64372994 10.14659757 87.46397786 9.20458984 89.28417969 C6.34016352 94.81998805 3.47878028 100.3573009 0.62902832 105.90068054 C-5.91056769 118.62070743 -12.5215851 131.28733911 -19.41796875 143.8190918 C-22.47644742 149.39229658 -25.40403598 155.00722186 -28.21166992 160.71020508 C-31.50380065 167.38138206 -34.92747445 173.98324346 -38.35205078 180.5871582 C-39.6738801 183.13782821 -40.99541687 185.68864974 -42.31689453 188.23950195 C-42.6568042 188.89556931 -42.99671387 189.55163666 -43.34692383 190.22758484 C-47.21487092 197.69539505 -51.06744908 205.17109111 -54.91455078 212.6496582 C-55.46304184 213.71583878 -55.46304184 213.71583878 -56.02261353 214.80355835 C-62.36783351 227.14149565 -68.67961117 239.49641892 -74.98556519 251.85446167 C-79.4803287 260.66241866 -83.97808048 269.46884937 -88.47705078 278.2746582 C-88.90922913 279.12074646 -89.34140747 279.96683472 -89.78668213 280.83856201 C-94.41492778 289.89769972 -99.05602273 298.94969669 -103.75683594 307.97143555 C-104.8516964 310.07382868 -105.94292383 312.17812073 -107.02929688 314.28491211 C-117.59055296 334.68889779 -117.59055296 334.68889779 -128.47705078 338.2746582 C-135.94398805 339.16039145 -142.32962434 338.77919096 -148.47705078 334.2746582 C-154.12220382 328.83044407 -157.89209032 322.56421208 -161.47705078 315.6496582 C-161.97849609 314.73442383 -162.47994141 313.81918945 -162.99658203 312.8762207 C-166.42074941 306.34860686 -166.42074941 306.34860686 -166.63330078 302.29418945 C-164.80253788 297.51317689 -162.42002688 293.08021019 -159.97705078 288.5871582 C-156.09236922 281.30640528 -152.32092484 274.01290842 -148.85205078 266.5246582 C-143.72186623 255.50241495 -138.00242258 244.80755481 -132.23095703 234.1105957 C-127.56068993 225.42223466 -123.21022418 216.62051172 -118.98730469 207.70629883 C-115.05659933 199.43141413 -111.00843713 191.21961959 -106.91455078 183.0246582 C-106.61716003 182.42746979 -106.31976929 181.83028137 -106.0133667 181.21499634 C-102.86398186 174.89433626 -99.66553459 168.60674819 -96.34495163 162.37468719 C-89.15964069 148.86243688 -82.36105532 135.15554201 -75.53530979 121.4596386 C-73.7608497 117.90057105 -71.98368043 114.34285687 -70.20672607 110.78503418 C-65.71109096 101.78277763 -61.21889137 92.77880855 -56.72705078 83.7746582 C-51.86043612 74.01930156 -46.99318082 64.26426729 -42.12202048 54.51117945 C-40.01943529 50.30107113 -37.91879459 46.09000048 -35.81971693 41.87814236 C-34.51071013 39.25260719 -33.20000147 36.62792426 -31.88885689 34.00345612 C-31.00368581 32.23038715 -30.12053443 30.45631032 -29.23747253 28.68218994 C-27.66568059 25.53840113 -26.07847519 22.40344778 -24.47705078 19.2746582 C-23.95138268 18.24605179 -23.42571457 17.21744537 -22.88411713 16.15766907 C-22.36973335 15.17908432 -21.85534958 14.20049957 -21.32537842 13.19226074 C-20.87419018 12.32888344 -20.42300194 11.46550613 -19.95814133 10.57596588 C-15.53479845 3.703008 -8.03161167 0.03940231 0 0 Z " fill="#040102" transform="translate(646.47705078125,323.725341796875)"/>
<path d="M0 0 C0.33 0 0.66 0 1 0 C1.06866919 42.52381151 1.12153035 85.04761661 1.15319599 127.57147258 C1.1569481 132.59200069 1.16083107 137.61252869 1.16479492 142.63305664 C1.16558185 143.6325518 1.16636878 144.63204695 1.16717956 145.66182984 C1.18023286 161.84471571 1.20388629 178.02756961 1.23145839 194.21043652 C1.25951468 210.8160102 1.27617674 227.42156715 1.28226548 244.02716357 C1.28638145 254.27338994 1.29938069 264.51952593 1.3237494 274.76572449 C1.33960934 281.79228225 1.34439977 288.8187933 1.34050413 295.84536766 C1.33858299 299.89910302 1.34152453 303.95268045 1.35761642 308.00638771 C1.3722533 311.72074121 1.37292796 315.4348311 1.36269668 319.14919693 C1.36083605 321.12290563 1.37374079 323.09661139 1.38724393 325.07027477 C1.34844952 332.76568774 1.10480704 340.1941075 -3.9375 346.375 C-4.9584375 347.179375 -4.9584375 347.179375 -6 348 C-7.0209375 348.8353125 -7.0209375 348.8353125 -8.0625 349.6875 C-11.01521427 351.6877258 -13.53353907 352.12837573 -17.0090332 352.17700195 C-17.81029129 352.18983719 -18.61154938 352.20267242 -19.43708801 352.21589661 C-20.73086617 352.22697701 -20.73086617 352.22697701 -22.05078125 352.23828125 C-22.94234421 352.246353 -23.83390717 352.25442474 -24.75248718 352.26274109 C-26.63957786 352.27656906 -28.52669342 352.28729697 -30.41381836 352.29516602 C-33.291338 352.31237345 -36.16770681 352.35626988 -39.04492188 352.40039062 C-40.8801999 352.41051855 -42.71548768 352.41903434 -44.55078125 352.42578125 C-45.40722733 352.44328934 -46.2636734 352.46079742 -47.14607239 352.47883606 C-52.59847172 352.45916038 -55.6585982 351.6064434 -60 348 C-61.64453125 346.18359375 -61.64453125 346.18359375 -62.8125 344.4375 C-63.21082031 343.85871094 -63.60914063 343.27992188 -64.01953125 342.68359375 C-66.42432705 338.55424319 -66.17601559 334.39374679 -66.21446228 329.77258301 C-66.22519463 328.92335691 -66.23592697 328.07413081 -66.24698454 327.19917059 C-66.28152203 324.34179818 -66.30873214 321.4844064 -66.33569336 318.62695312 C-66.35832484 316.58167264 -66.38119332 314.53639476 -66.40428162 312.49111938 C-66.60719108 293.73749541 -66.71868964 274.98290454 -66.80750179 256.2284317 C-66.86845248 243.63432127 -66.95558739 231.04157278 -67.11108398 218.44824219 C-67.2468827 207.44991134 -67.33204327 196.45252388 -67.35790926 185.45336485 C-67.37316668 179.64266883 -67.41177302 173.83447409 -67.51078606 168.02455139 C-68.2542228 122.50120733 -68.2542228 122.50120733 -53.70350838 101.53013611 C-51.07020465 97.61902129 -48.99109879 93.45560977 -46.875 89.25 C-46.08369573 87.74323 -45.28979256 86.23781919 -44.4921875 84.734375 C-41.12398146 78.34536855 -37.79131877 71.93781593 -34.45385742 65.53271484 C-31.38097282 59.63831437 -28.29166452 53.75297522 -25.1875 47.875 C-22.16982225 42.16026103 -19.18312024 36.43006857 -16.21875 30.6875 C-15.88700272 30.04499298 -15.55525543 29.40248596 -15.2134552 28.74050903 C-13.56155499 25.54021882 -11.91163382 22.33892716 -10.2644043 19.13623047 C-6.94742574 12.69704844 -3.57734783 6.29903975 0 0 Z " fill="#040202" transform="translate(705,348)"/>
<path d="M0 0 C1.9346542 2.54007795 3.60235564 4.9603849 5.01782227 7.82446289 C5.3857338 8.5636647 5.75364532 9.30286652 6.13270569 10.06446838 C6.52332687 10.85917038 6.91394806 11.65387238 7.31640625 12.47265625 C7.73236557 13.30977646 8.14832489 14.14689667 8.57688904 15.00938416 C9.90925256 17.69187854 11.23627711 20.37696507 12.5625 23.0625 C18.85086525 35.77473021 25.26229762 48.40266097 31.90744019 60.93228149 C33.4454175 63.84297262 34.95883643 66.76607617 36.46875 69.69140625 C41.68018701 79.78632274 46.95124228 89.82489756 52.52978516 99.72216797 C55.63820482 105.26660503 58.52902664 110.90001396 61.3137207 116.61352539 C62.84309763 119.74260977 64.44356252 122.78038423 66.2265625 125.76953125 C68 129 68 129 68 132 C67.34 132 66.68 132 66 132 C66.00368717 133.0706775 66.00737434 134.141355 66.01117325 135.24447727 C66.09995789 161.29227271 66.16569658 187.34004852 66.20724869 213.38796329 C66.2278769 225.98452697 66.25600261 238.5809907 66.30175781 251.17749023 C66.34161745 262.15615847 66.36743093 273.13475432 66.37635398 284.11349291 C66.38157016 289.92706698 66.39383579 295.74043399 66.42292023 301.55394173 C66.45007532 307.02615311 66.45844469 312.49807218 66.45243073 317.97034454 C66.45353091 319.97827938 66.46148409 321.98622401 66.4768219 323.99410057 C66.49675114 326.73768201 66.49192841 329.48016273 66.48101807 332.22377014 C66.49849512 333.4129976 66.49849512 333.4129976 66.51632524 334.62624985 C66.45660256 340.19018439 65.1598321 343.40149732 62 348 C58.13060113 351.58627213 55.15517631 353.10527527 49.89916992 353.17700195 C49.07789108 353.18983719 48.25661224 353.20267242 47.41044617 353.21589661 C46.52605362 353.22328354 45.64166107 353.23067047 44.73046875 353.23828125 C43.81670975 353.246353 42.90295074 353.25442474 41.96150208 353.26274109 C40.02733247 353.27657007 38.09313858 353.28729753 36.15893555 353.29516602 C33.20899957 353.31237458 30.26018579 353.35627051 27.31054688 353.40039062 C25.42969573 353.4105184 23.54883507 353.41903424 21.66796875 353.42578125 C20.7896489 353.44328934 19.91132904 353.46079742 19.00639343 353.47883606 C13.50335233 353.45945622 10.34994725 352.69257723 6 349 C1.60949748 343.38991344 -0.25137317 338.09691244 -0.24609566 330.99865913 C-0.25007775 329.81280853 -0.25405985 328.62695793 -0.25816262 327.40517247 C-0.25233693 326.11139994 -0.24651125 324.81762741 -0.24050903 323.48464966 C-0.24138153 322.08941281 -0.24313332 320.69417628 -0.24568737 319.29894149 C-0.25015624 315.47012514 -0.24216354 311.64142082 -0.23213124 307.81261873 C-0.22349243 303.68180631 -0.22641721 299.55100019 -0.22793579 295.42018127 C-0.22898437 288.26497018 -0.2227106 281.10979557 -0.21146011 273.95459366 C-0.1952044 263.60938428 -0.18999703 253.26419253 -0.18748413 242.91897176 C-0.18310714 226.13444774 -0.16979793 209.34994316 -0.15087891 192.56542969 C-0.13252021 176.2610687 -0.11836365 159.95671299 -0.10986328 143.65234375 C-0.10933783 142.64730258 -0.10881239 141.64226141 -0.10827102 140.60676445 C-0.10566094 135.56475628 -0.10313352 130.52274807 -0.10064721 125.48073983 C-0.07991459 83.65381303 -0.04468894 41.82690763 0 0 Z " fill="#040202" transform="translate(318,347)"/>
<path d="M0 0 C1.01180328 -0.01268417 2.02360657 -0.02536835 3.06607056 -0.03843689 C4.15978973 -0.03550125 5.25350891 -0.03256561 6.38037109 -0.02954102 C8.07327774 -0.03740379 8.07327774 -0.03740379 9.80038452 -0.04542542 C12.192761 -0.05185526 14.58516906 -0.05049625 16.97753906 -0.04199219 C20.61891001 -0.03352838 24.25868831 -0.06215758 27.89990234 -0.09399414 C30.22672479 -0.0956075 32.55355 -0.09502605 34.88037109 -0.09204102 C36.50273178 -0.10889198 36.50273178 -0.10889198 38.15786743 -0.12608337 C47.81948735 -0.0381492 55.15545992 2.51011396 62.02880859 9.40405273 C63.54496119 11.79977721 64.82455338 14.03786897 66.06005859 16.56420898 C66.41318115 17.25816269 66.76630371 17.95211639 67.13012695 18.667099 C68.27616873 20.92721741 69.4024986 23.19654627 70.52880859 25.46655273 C71.32512982 27.04593682 72.12266984 28.62470694 72.92138672 30.20288086 C74.9295062 34.1791459 76.92145115 38.16323322 78.90673828 42.15093994 C80.58855888 45.52802911 82.27779772 48.90139897 83.96630859 52.27514648 C85.67920406 55.69780984 87.38924644 59.12175457 89.08544922 62.55273438 C91.70415747 67.83631933 94.37639971 73.08028787 97.14820766 78.28480339 C104.15887491 91.47082769 110.80358154 104.83991018 117.463557 118.20508718 C119.16334734 121.61481436 120.8658466 125.02318837 122.56813049 128.43167114 C126.86993644 137.04626143 131.16828968 145.66257255 135.46630859 154.27905273 C140.13355249 163.63564834 144.80144001 172.99192007 149.47320324 182.34626019 C151.49131149 186.38743902 153.50747039 190.42958237 155.5221051 194.47249389 C156.47077949 196.375511 157.4203714 198.27806684 158.37037659 200.18041992 C159.52579389 202.4941186 160.67977416 204.80853569 161.83203125 207.12380981 C162.3433812 208.1465802 162.85473114 209.16935059 163.38157654 210.22311401 C163.82303229 211.10824614 164.26448805 211.99337826 164.71932125 212.90533257 C166.01488788 215.46600038 166.01488788 215.46600038 167.70259094 218.01419926 C169.62763021 221.48313348 168.94641732 223.61234375 168.02880859 227.40405273 C166.76963806 230.52366638 166.76963806 230.52366638 165.16137695 233.70654297 C164.86862381 234.29277939 164.57587067 234.87901581 164.27424622 235.48301697 C163.31513026 237.39779691 162.34209468 239.30511587 161.36865234 241.21264648 C160.69659912 242.54741643 160.02543426 243.882634 159.3551178 245.21827698 C157.59666871 248.71617194 155.82628722 252.20789018 154.05328369 255.69842529 C152.24290495 259.26784686 150.44397129 262.84302529 148.64404297 266.41772461 C145.11675716 273.41882628 141.57683446 280.41343904 138.02880859 287.40405273 C135.34319321 284.84313875 133.88019088 282.44227684 132.24365234 279.09155273 C131.71843994 278.02622314 131.19322754 276.96089355 130.65209961 275.86328125 C130.09578857 274.72173584 129.53947754 273.58019043 128.96630859 272.40405273 C127.78815167 270.01655862 126.60876436 267.6297236 125.42724609 265.24389648 C124.8468457 264.07068848 124.26644531 262.89748047 123.66845703 261.6887207 C121.53542616 257.41567167 119.33177454 253.18403852 117.09130859 248.96655273 C107.94441333 231.71376511 98.97386966 214.37624335 90.28051758 196.89038086 C86.94786262 190.20176955 83.52487694 183.56909707 80.0234375 176.9675293 C76.18321374 169.72233735 72.41556537 162.44018131 68.65380859 155.15405273 C63.60634336 145.38087115 58.54368359 135.61593902 53.44726562 125.86816406 C50.89373754 120.98309802 48.34875498 116.09386379 45.81787109 111.19702148 C40.7025703 101.30840471 35.54113002 91.45996511 30.15380859 81.71655273 C24.63926703 71.72547927 19.54444205 61.54529544 14.47265625 51.32543945 C10.89793895 44.12494237 7.28402133 36.9501587 3.52880859 29.84155273 C2.9380957 28.72139771 2.9380957 28.72139771 2.33544922 27.57861328 C0.54969551 24.21048336 -1.2653907 20.8629805 -3.13525391 17.54077148 C-3.46847656 16.94272705 -3.80169922 16.34468262 -4.14501953 15.72851562 C-5.01752554 14.16960537 -5.90384631 12.61844808 -6.79150391 11.06811523 C-8.06549091 8.19109824 -8.45891672 6.5068159 -7.97119141 3.40405273 C-5.62366983 0.26548441 -3.82271147 0.02320767 0 0 Z " fill="#040202" transform="translate(333.97119140625,323.595947265625)"/>
<path d="M0 0 C0.33 0 0.66 0 1 0 C1 110.55 1 221.1 1 335 C0.67 335 0.34 335 0 335 C-0.33 226.43 -0.66 117.86 -1 6 C-1.99 6.495 -1.99 6.495 -3 7 C-1.125 1.125 -1.125 1.125 0 0 Z " fill="#808080" transform="translate(705,348)"/>
<path d="M0 0 C0.33 0 0.66 0 1 0 C1 22.44 1 44.88 1 68 C0.67 68 0.34 68 0 68 C-0.33 47.54 -0.66 27.08 -1 6 C-1.99 6.495 -1.99 6.495 -3 7 C-1.125 1.125 -1.125 1.125 0 0 Z " fill="#595959" transform="translate(705,348)"/>
<path d="M0 0 C0.33 0 0.66 0 1 0 C1 3.63 1 7.26 1 11 C0.67 11 0.34 11 0 11 C-0.33 9.35 -0.66 7.7 -1 6 C-1.99 6.495 -1.99 6.495 -3 7 C-1.125 1.125 -1.125 1.125 0 0 Z " fill="#3D3D3D" transform="translate(705,348)"/>
</svg>
